<mxfile host="app.diagrams.net" modified="2021-05-30T08:03:56.632Z" agent="5.0 (Windows NT 10.0; Win64; x64) AppleWebKit/537.36 (KHTML, like Gecko) Chrome/90.0.4430.72 YaBrowser/21.5.1.330 Yowser/2.5 Safari/537.36" etag="03NSvhWR_JQwXW4_xAId" version="14.7.3" type="github">
  <diagram id="5jer-XYNRIG9UI3xQyW0" name="Page-1">
    <mxGraphModel dx="1155" dy="673" grid="1" gridSize="10" guides="1" tooltips="1" connect="1" arrows="1" fold="1" page="1" pageScale="1" pageWidth="827" pageHeight="1169" math="0" shadow="0">
      <root>
        <mxCell id="0" />
        <mxCell id="1" parent="0" />
        <mxCell id="OlXouog5amvouo7370WD-7" style="edgeStyle=orthogonalEdgeStyle;rounded=0;orthogonalLoop=1;jettySize=auto;html=1;exitX=0.5;exitY=0;exitDx=0;exitDy=0;entryX=0.5;entryY=1;entryDx=0;entryDy=0;" edge="1" parent="1" source="OlXouog5amvouo7370WD-1" target="OlXouog5amvouo7370WD-2">
          <mxGeometry relative="1" as="geometry" />
        </mxCell>
        <mxCell id="OlXouog5amvouo7370WD-10" style="edgeStyle=orthogonalEdgeStyle;rounded=0;orthogonalLoop=1;jettySize=auto;html=1;exitX=0;exitY=0.5;exitDx=0;exitDy=0;" edge="1" parent="1" source="OlXouog5amvouo7370WD-1" target="OlXouog5amvouo7370WD-4">
          <mxGeometry relative="1" as="geometry" />
        </mxCell>
        <mxCell id="OlXouog5amvouo7370WD-20" style="edgeStyle=orthogonalEdgeStyle;rounded=0;orthogonalLoop=1;jettySize=auto;html=1;exitX=1;exitY=0.5;exitDx=0;exitDy=0;entryX=0;entryY=0.5;entryDx=0;entryDy=0;" edge="1" parent="1" source="OlXouog5amvouo7370WD-1" target="OlXouog5amvouo7370WD-5">
          <mxGeometry relative="1" as="geometry" />
        </mxCell>
        <mxCell id="OlXouog5amvouo7370WD-1" value="Главная" style="rounded=1;whiteSpace=wrap;html=1;" vertex="1" parent="1">
          <mxGeometry x="330" y="190" width="180" height="50" as="geometry" />
        </mxCell>
        <mxCell id="OlXouog5amvouo7370WD-8" style="edgeStyle=orthogonalEdgeStyle;rounded=0;orthogonalLoop=1;jettySize=auto;html=1;exitX=0.5;exitY=1;exitDx=0;exitDy=0;entryX=0.5;entryY=0;entryDx=0;entryDy=0;" edge="1" parent="1" source="OlXouog5amvouo7370WD-2" target="OlXouog5amvouo7370WD-1">
          <mxGeometry relative="1" as="geometry" />
        </mxCell>
        <mxCell id="OlXouog5amvouo7370WD-12" style="edgeStyle=orthogonalEdgeStyle;rounded=0;orthogonalLoop=1;jettySize=auto;html=1;exitX=0;exitY=0.5;exitDx=0;exitDy=0;" edge="1" parent="1" source="OlXouog5amvouo7370WD-2" target="OlXouog5amvouo7370WD-6">
          <mxGeometry relative="1" as="geometry" />
        </mxCell>
        <mxCell id="OlXouog5amvouo7370WD-24" style="edgeStyle=orthogonalEdgeStyle;rounded=0;orthogonalLoop=1;jettySize=auto;html=1;exitX=1;exitY=0.5;exitDx=0;exitDy=0;" edge="1" parent="1" source="OlXouog5amvouo7370WD-2" target="OlXouog5amvouo7370WD-5">
          <mxGeometry relative="1" as="geometry" />
        </mxCell>
        <mxCell id="OlXouog5amvouo7370WD-2" value="Предсказанные матчи" style="rounded=1;whiteSpace=wrap;html=1;" vertex="1" parent="1">
          <mxGeometry x="330" y="120" width="180" height="50" as="geometry" />
        </mxCell>
        <mxCell id="OlXouog5amvouo7370WD-9" style="edgeStyle=orthogonalEdgeStyle;rounded=0;orthogonalLoop=1;jettySize=auto;html=1;exitX=1;exitY=0.5;exitDx=0;exitDy=0;" edge="1" parent="1" source="OlXouog5amvouo7370WD-4" target="OlXouog5amvouo7370WD-1">
          <mxGeometry relative="1" as="geometry" />
        </mxCell>
        <mxCell id="OlXouog5amvouo7370WD-17" style="edgeStyle=orthogonalEdgeStyle;rounded=0;orthogonalLoop=1;jettySize=auto;html=1;exitX=0.5;exitY=0;exitDx=0;exitDy=0;" edge="1" parent="1" source="OlXouog5amvouo7370WD-4" target="OlXouog5amvouo7370WD-6">
          <mxGeometry relative="1" as="geometry" />
        </mxCell>
        <mxCell id="OlXouog5amvouo7370WD-22" style="edgeStyle=orthogonalEdgeStyle;rounded=0;orthogonalLoop=1;jettySize=auto;html=1;exitX=0.5;exitY=1;exitDx=0;exitDy=0;entryX=0.5;entryY=1;entryDx=0;entryDy=0;" edge="1" parent="1" source="OlXouog5amvouo7370WD-4" target="OlXouog5amvouo7370WD-5">
          <mxGeometry relative="1" as="geometry" />
        </mxCell>
        <mxCell id="OlXouog5amvouo7370WD-4" value="Статистика алгоритма" style="rounded=1;whiteSpace=wrap;html=1;" vertex="1" parent="1">
          <mxGeometry x="130" y="190" width="180" height="50" as="geometry" />
        </mxCell>
        <mxCell id="OlXouog5amvouo7370WD-21" style="edgeStyle=orthogonalEdgeStyle;rounded=0;orthogonalLoop=1;jettySize=auto;html=1;exitX=0;exitY=0.5;exitDx=0;exitDy=0;" edge="1" parent="1" source="OlXouog5amvouo7370WD-5" target="OlXouog5amvouo7370WD-1">
          <mxGeometry relative="1" as="geometry" />
        </mxCell>
        <mxCell id="OlXouog5amvouo7370WD-23" style="edgeStyle=orthogonalEdgeStyle;rounded=0;orthogonalLoop=1;jettySize=auto;html=1;exitX=0.5;exitY=1;exitDx=0;exitDy=0;entryX=0.5;entryY=1;entryDx=0;entryDy=0;" edge="1" parent="1" source="OlXouog5amvouo7370WD-5" target="OlXouog5amvouo7370WD-4">
          <mxGeometry relative="1" as="geometry" />
        </mxCell>
        <mxCell id="OlXouog5amvouo7370WD-25" style="edgeStyle=orthogonalEdgeStyle;rounded=0;orthogonalLoop=1;jettySize=auto;html=1;exitX=0.5;exitY=0;exitDx=0;exitDy=0;entryX=1;entryY=0.5;entryDx=0;entryDy=0;" edge="1" parent="1" source="OlXouog5amvouo7370WD-5" target="OlXouog5amvouo7370WD-2">
          <mxGeometry relative="1" as="geometry" />
        </mxCell>
        <mxCell id="OlXouog5amvouo7370WD-5" value="Поддержать" style="rounded=1;whiteSpace=wrap;html=1;" vertex="1" parent="1">
          <mxGeometry x="530" y="190" width="180" height="50" as="geometry" />
        </mxCell>
        <mxCell id="OlXouog5amvouo7370WD-11" style="edgeStyle=orthogonalEdgeStyle;rounded=0;orthogonalLoop=1;jettySize=auto;html=1;exitX=1;exitY=0.5;exitDx=0;exitDy=0;" edge="1" parent="1" source="OlXouog5amvouo7370WD-6" target="OlXouog5amvouo7370WD-2">
          <mxGeometry relative="1" as="geometry" />
        </mxCell>
        <mxCell id="OlXouog5amvouo7370WD-16" style="edgeStyle=orthogonalEdgeStyle;rounded=0;orthogonalLoop=1;jettySize=auto;html=1;exitX=0.5;exitY=1;exitDx=0;exitDy=0;" edge="1" parent="1" source="OlXouog5amvouo7370WD-6" target="OlXouog5amvouo7370WD-4">
          <mxGeometry relative="1" as="geometry" />
        </mxCell>
        <mxCell id="OlXouog5amvouo7370WD-6" value="Статистика команды" style="rounded=1;whiteSpace=wrap;html=1;" vertex="1" parent="1">
          <mxGeometry x="130" y="120" width="180" height="50" as="geometry" />
        </mxCell>
      </root>
    </mxGraphModel>
  </diagram>
</mxfile>
